<svg width="60" height="60" viewBox="0 0 60 60" fill="none" xmlns="http://www.w3.org/2000/svg">
<g clip-path="url(#clip0_7_1493)">
<path d="M13.3712 15.6979C13.5222 16.0212 13.7622 16.2947 14.0632 16.4863C14.3642 16.6779 14.7136 16.7797 15.0704 16.7796H24.1876V20C24.1876 20.4973 24.3852 20.9742 24.7368 21.3259C25.0884 21.6775 25.5653 21.875 26.0626 21.875C26.5599 21.875 27.0368 21.6775 27.3884 21.3259C27.7401 20.9742 27.9376 20.4973 27.9376 20V16.7796H28.8013C29.2986 16.7796 29.7755 16.5821 30.1271 16.2304C30.4787 15.8788 30.6763 15.4019 30.6763 14.9046C30.6763 14.4073 30.4787 13.9304 30.1271 13.5788C29.7755 13.2272 29.2986 13.0296 28.8013 13.0296H27.9376V1.77786C27.9375 1.393 27.819 1.01749 27.5981 0.702311C27.3773 0.387131 27.0648 0.147549 26.7031 0.0160914C26.3413 -0.115366 25.9479 -0.132332 25.5763 -0.0325024C25.2046 0.0673274 24.8726 0.279116 24.6254 0.574113L13.6325 13.7009C13.4035 13.9744 13.2573 14.3076 13.211 14.6613C13.1647 15.015 13.2203 15.3746 13.3712 15.6979ZM24.1876 6.93739V13.0299H19.0859L24.1876 6.93739ZM33.6763 46.7656L43.4992 31.4296H36.2666C35.7693 31.4296 35.2924 31.232 34.9408 30.8804C34.5891 30.5288 34.3916 30.0519 34.3916 29.5546C34.3916 29.0573 34.5891 28.5804 34.9408 28.2288C35.2924 27.8771 35.7693 27.6796 36.2666 27.6796H46.9268C47.2633 27.6796 47.5935 27.7701 47.8829 27.9417C48.1724 28.1133 48.4103 28.3596 48.5718 28.6548C48.7332 28.9499 48.8123 29.2831 48.8007 29.6194C48.789 29.9557 48.6871 30.2826 48.5057 30.5659L36.8338 48.7886C36.7013 48.9965 36.529 49.1763 36.3269 49.3176C36.1248 49.4589 35.8968 49.5589 35.656 49.612C35.4152 49.665 35.1663 49.6701 34.9235 49.6268C34.6807 49.5835 34.4489 49.4928 34.2412 49.3598C34.0336 49.2268 33.8542 49.0541 33.7134 48.8517C33.5726 48.6492 33.4731 48.421 33.4206 48.1801C33.3681 47.9391 33.3636 47.6902 33.4074 47.4475C33.4513 47.2049 33.5428 46.9729 33.6763 46.7656ZM43.4919 12.3116C43.8435 12.6632 44.0411 13.1401 44.0411 13.6374C44.0411 14.1347 43.8435 14.6116 43.4919 14.9632L15.8523 42.6029C15.4999 42.951 15.0242 43.1456 14.5289 43.1441C14.0335 43.1426 13.559 42.9451 13.2087 42.5949C12.8585 42.2447 12.6611 41.7701 12.6596 41.2748C12.6581 40.7795 12.8526 40.3037 13.2007 39.9513L40.84 12.3116C41.0141 12.1375 41.2208 11.9993 41.4483 11.9051C41.6758 11.8108 41.9197 11.7623 42.1659 11.7623C42.4122 11.7623 42.656 11.8108 42.8836 11.9051C43.1111 11.9993 43.3178 12.1375 43.4919 12.3116ZM10.6056 8.38325C11.0802 6.64536 10.7794 5.33638 9.71156 4.49087C8.51624 3.54517 6.52605 3.37759 5.18062 4.11048C4.15851 4.66712 3.70558 5.62888 3.83449 6.96985C3.88202 7.46488 3.73096 7.95852 3.41454 8.34217C3.09812 8.72582 2.64225 8.96806 2.14722 9.0156C1.65219 9.06313 1.15856 8.91208 0.774905 8.59565C0.391254 8.27923 0.149015 7.82336 0.101478 7.32833C-0.172858 4.47646 1.02468 2.10353 3.38683 0.817159C6.0382 -0.62659 9.67652 -0.318387 12.0381 1.55005C14.296 3.33657 15.0922 6.18728 14.2227 9.37114C13.6358 11.5201 11.627 13.0876 9.30081 14.903C8.04503 15.8829 6.69058 16.9398 5.55492 18.1256H13.322C13.8193 18.1256 14.2962 18.3232 14.6478 18.6748C14.9994 19.0264 15.197 19.5034 15.197 20.0006C15.197 20.4979 14.9994 20.9748 14.6478 21.3265C14.2962 21.6781 13.8193 21.8756 13.322 21.8756H1.91437C1.5966 21.8757 1.28401 21.7951 1.00597 21.6412C0.72792 21.4874 0.493538 21.2654 0.32483 20.9961C0.156121 20.7268 0.0586211 20.4191 0.0414856 20.1017C0.0243501 19.7844 0.0881414 19.468 0.226869 19.1821C1.75324 16.0363 4.53714 13.8639 6.99328 11.9472C8.64222 10.6603 10.3466 9.33025 10.6056 8.38325ZM60.0001 30.0969C60.0001 36.0304 58.2407 41.8306 54.9443 46.7641C51.6478 51.6976 46.9624 55.5428 41.4806 57.8135C35.9988 60.0841 29.9668 60.6782 24.1474 59.5206C18.3279 58.3631 12.9824 55.5058 8.78683 51.3102C5.99236 48.5309 3.77688 45.2249 2.26864 41.5837C0.760398 37.9424 -0.0106543 34.0382 0.000111195 30.0969C0.000111195 29.5996 0.197655 29.1227 0.549286 28.7711C0.900917 28.4195 1.37783 28.2219 1.87511 28.2219C2.37239 28.2219 2.84931 28.4195 3.20094 28.7711C3.55257 29.1227 3.75011 29.5996 3.75011 30.0969C3.75011 44.5712 15.5258 56.3469 30.0001 56.3469C44.4744 56.3469 56.2501 44.5712 56.2501 30.0969C56.2501 16.956 46.4399 5.76681 33.4307 4.06958C33.1839 4.04084 32.9454 3.96335 32.7288 3.84163C32.5123 3.71991 32.3221 3.55637 32.1693 3.36052C32.0165 3.16467 31.9041 2.94042 31.8388 2.70078C31.7734 2.46114 31.7562 2.21089 31.7884 1.96457C31.8205 1.71826 31.9013 1.48079 32.026 1.26595C32.1507 1.05111 32.3168 0.863194 32.5148 0.71311C32.7127 0.563026 32.9385 0.453768 33.179 0.391684C33.4195 0.329599 33.67 0.315925 33.9158 0.351456C41.1318 1.30244 47.756 4.84391 52.5548 10.3162C57.3536 15.7885 59.9996 22.8186 60.0001 30.0969Z" fill="url(#paint0_linear_7_1493)"/>
</g>
<defs>
<linearGradient id="paint0_linear_7_1493" x1="14.6342" y1="-65.6649" x2="92.7068" y2="-46.3069" gradientUnits="userSpaceOnUse">
<stop stop-color="#6987F1"/>
<stop offset="0.520833" stop-color="#7F32C1"/>
<stop offset="1" stop-color="#E84ED8"/>
</linearGradient>
<clipPath id="clip0_7_1493">
<rect width="60" height="60" fill="white"/>
</clipPath>
</defs>
</svg>
