<svg width="24" height="24" viewBox="0 0 24 24" fill="none" xmlns="http://www.w3.org/2000/svg">
<path d="M11.9999 14.2199L7.95991 12.8699L11.9999 10.8499L16.0399 12.8699L11.9999 14.2199ZM11.9999 15.7599C11.9181 15.7613 11.8368 15.7477 11.7599 15.7199L7.57891 14.3259C7.51897 14.3057 7.4542 14.305 7.39384 14.3239C7.33348 14.3427 7.28061 14.3801 7.2428 14.4308C7.20498 14.4815 7.18415 14.5428 7.18327 14.6061C7.18239 14.6693 7.20151 14.7312 7.23791 14.7829L11.3299 20.6499C11.4046 20.7586 11.5046 20.8475 11.6214 20.9089C11.7381 20.9703 11.868 21.0024 11.9999 21.0024C12.1318 21.0024 12.2617 20.9703 12.3784 20.9089C12.4952 20.8475 12.5952 20.7586 12.6699 20.6499L16.7619 14.7829C16.7983 14.7312 16.8174 14.6693 16.8165 14.6061C16.8157 14.5428 16.7948 14.4815 16.757 14.4308C16.7192 14.3801 16.6663 14.3427 16.606 14.3239C16.5456 14.305 16.4808 14.3057 16.4209 14.3259L12.2399 15.7199C12.163 15.7477 12.0817 15.7613 11.9999 15.7599ZM12.3399 9.3399L16.4999 11.4189C16.5572 11.4487 16.6226 11.4592 16.6864 11.4488C16.7501 11.4385 16.8089 11.4078 16.8538 11.3614C16.8987 11.315 16.9275 11.2554 16.9358 11.1913C16.9441 11.1273 16.9315 11.0622 16.8999 11.0059L12.7199 3.4199C12.6479 3.29239 12.5432 3.18629 12.4167 3.11247C12.2902 3.03865 12.1464 2.99976 11.9999 2.99976C11.8534 2.99976 11.7096 3.03865 11.5831 3.11247C11.4566 3.18629 11.352 3.29239 11.2799 3.4199L7.09991 11.0059C7.06829 11.0622 7.05571 11.1273 7.06402 11.1913C7.07233 11.2554 7.10109 11.315 7.14603 11.3614C7.19097 11.4078 7.24968 11.4385 7.31344 11.4488C7.3772 11.4592 7.4426 11.4487 7.49991 11.4189L11.6599 9.3399C11.7664 9.29049 11.8825 9.26489 11.9999 9.26489C12.1173 9.26489 12.2334 9.29049 12.3399 9.3399Z" fill="#24282B"/>
</svg>
