<svg width="24" height="24" viewBox="0 0 24 24" fill="none" xmlns="http://www.w3.org/2000/svg">
<path d="M11.9999 14.22L7.95991 12.87L11.9999 10.85L16.0399 12.87L11.9999 14.22ZM11.9999 15.76C11.9181 15.7614 11.8368 15.7479 11.7599 15.72L7.57891 14.326C7.51897 14.3059 7.4542 14.3051 7.39384 14.324C7.33348 14.3428 7.28061 14.3803 7.2428 14.431C7.20498 14.4816 7.18415 14.543 7.18327 14.6062C7.18239 14.6694 7.20151 14.7313 7.23791 14.783L11.3299 20.65C11.4046 20.7587 11.5046 20.8476 11.6214 20.909C11.7381 20.9704 11.868 21.0025 11.9999 21.0025C12.1318 21.0025 12.2617 20.9704 12.3784 20.909C12.4952 20.8476 12.5952 20.7587 12.6699 20.65L16.7619 14.783C16.7983 14.7313 16.8174 14.6694 16.8165 14.6062C16.8157 14.543 16.7948 14.4816 16.757 14.431C16.7192 14.3803 16.6663 14.3428 16.606 14.324C16.5456 14.3051 16.4808 14.3059 16.4209 14.326L12.2399 15.72C12.163 15.7479 12.0817 15.7614 11.9999 15.76ZM12.3399 9.34003L16.4999 11.419C16.5572 11.4488 16.6226 11.4593 16.6864 11.449C16.7501 11.4386 16.8089 11.408 16.8538 11.3616C16.8987 11.3152 16.9275 11.2555 16.9358 11.1914C16.9441 11.1274 16.9315 11.0624 16.8999 11.006L12.7199 3.42003C12.6479 3.29251 12.5432 3.18642 12.4167 3.1126C12.2902 3.03878 12.1464 2.99988 11.9999 2.99988C11.8534 2.99988 11.7096 3.03878 11.5831 3.1126C11.4566 3.18642 11.352 3.29251 11.2799 3.42003L7.09991 11.006C7.06829 11.0624 7.05571 11.1274 7.06402 11.1914C7.07233 11.2555 7.10109 11.3152 7.14603 11.3616C7.19097 11.408 7.24968 11.4386 7.31344 11.449C7.3772 11.4593 7.4426 11.4488 7.49991 11.419L11.6599 9.34003C11.7664 9.29061 11.8825 9.26501 11.9999 9.26501C12.1173 9.26501 12.2334 9.29061 12.3399 9.34003Z" fill="#24282B"/>
</svg>
