<svg width="24" height="24" viewBox="0 0 24 24" fill="none" xmlns="http://www.w3.org/2000/svg">
<path d="M12 14.2199L7.96003 12.8699L12 10.8499L16.04 12.8699L12 14.2199ZM12 15.7599C11.9183 15.7613 11.8369 15.7477 11.76 15.7199L7.57903 14.3259C7.5191 14.3057 7.45432 14.305 7.39396 14.3239C7.3336 14.3427 7.28074 14.3801 7.24292 14.4308C7.2051 14.4815 7.18427 14.5428 7.18339 14.6061C7.18251 14.6693 7.20164 14.7312 7.23803 14.7829L11.33 20.6499C11.4047 20.7586 11.5048 20.8475 11.6215 20.9089C11.7382 20.9703 11.8681 21.0024 12 21.0024C12.1319 21.0024 12.2618 20.9703 12.3786 20.9089C12.4953 20.8475 12.5953 20.7586 12.67 20.6499L16.762 14.7829C16.7984 14.7312 16.8175 14.6693 16.8167 14.6061C16.8158 14.5428 16.795 14.4815 16.7571 14.4308C16.7193 14.3801 16.6665 14.3427 16.6061 14.3239C16.5457 14.305 16.481 14.3057 16.421 14.3259L12.24 15.7199C12.1631 15.7477 12.0818 15.7613 12 15.7599ZM12.34 9.3399L16.5 11.4189C16.5573 11.4487 16.6227 11.4592 16.6865 11.4488C16.7503 11.4385 16.809 11.4078 16.8539 11.3614C16.8989 11.315 16.9276 11.2554 16.9359 11.1913C16.9442 11.1273 16.9316 11.0622 16.9 11.0059L12.72 3.4199C12.648 3.29239 12.5433 3.18629 12.4168 3.11247C12.2903 3.03865 12.1465 2.99976 12 2.99976C11.8536 2.99976 11.7097 3.03865 11.5832 3.11247C11.4567 3.18629 11.3521 3.29239 11.28 3.4199L7.10003 11.0059C7.06842 11.0622 7.05583 11.1273 7.06414 11.1913C7.07245 11.2554 7.10121 11.315 7.14615 11.3614C7.19109 11.4078 7.2498 11.4385 7.31356 11.4488C7.37732 11.4592 7.44272 11.4487 7.50003 11.4189L11.66 9.3399C11.7666 9.29049 11.8826 9.26489 12 9.26489C12.1175 9.26489 12.2335 9.29049 12.34 9.3399Z" fill="#24282B"/>
</svg>
