<svg width="24" height="24" viewBox="0 0 24 24" fill="none" xmlns="http://www.w3.org/2000/svg">
<path d="M12 14.22L7.96003 12.87L12 10.85L16.04 12.87L12 14.22ZM12 15.76C11.9183 15.7614 11.8369 15.7479 11.76 15.72L7.57903 14.326C7.5191 14.3059 7.45432 14.3051 7.39396 14.324C7.3336 14.3428 7.28074 14.3803 7.24292 14.431C7.2051 14.4816 7.18427 14.543 7.18339 14.6062C7.18251 14.6694 7.20164 14.7313 7.23803 14.783L11.33 20.65C11.4047 20.7587 11.5048 20.8476 11.6215 20.909C11.7382 20.9704 11.8681 21.0025 12 21.0025C12.1319 21.0025 12.2618 20.9704 12.3786 20.909C12.4953 20.8476 12.5953 20.7587 12.67 20.65L16.762 14.783C16.7984 14.7313 16.8175 14.6694 16.8167 14.6062C16.8158 14.543 16.795 14.4816 16.7571 14.431C16.7193 14.3803 16.6665 14.3428 16.6061 14.324C16.5457 14.3051 16.481 14.3059 16.421 14.326L12.24 15.72C12.1631 15.7479 12.0818 15.7614 12 15.76ZM12.34 9.34003L16.5 11.419C16.5573 11.4488 16.6227 11.4593 16.6865 11.449C16.7503 11.4386 16.809 11.408 16.8539 11.3616C16.8989 11.3152 16.9276 11.2555 16.9359 11.1914C16.9442 11.1274 16.9316 11.0624 16.9 11.006L12.72 3.42003C12.648 3.29251 12.5433 3.18642 12.4168 3.1126C12.2903 3.03878 12.1465 2.99988 12 2.99988C11.8536 2.99988 11.7097 3.03878 11.5832 3.1126C11.4567 3.18642 11.3521 3.29251 11.28 3.42003L7.10003 11.006C7.06842 11.0624 7.05583 11.1274 7.06414 11.1914C7.07245 11.2555 7.10121 11.3152 7.14615 11.3616C7.19109 11.408 7.2498 11.4386 7.31356 11.449C7.37732 11.4593 7.44272 11.4488 7.50003 11.419L11.66 9.34003C11.7666 9.29061 11.8826 9.26501 12 9.26501C12.1175 9.26501 12.2335 9.29061 12.34 9.34003Z" fill="#24282B"/>
</svg>
