<svg width="24" height="24" viewBox="0 0 24 24" fill="none" xmlns="http://www.w3.org/2000/svg">
<path d="M12 22.6648C11.6583 22.6648 11.3289 22.541 11.0722 22.3162C10.1027 21.4684 9.16791 20.6717 8.3432 19.9689L8.33899 19.9653C5.92108 17.9048 3.83313 16.1254 2.38037 14.3725C0.756409 12.4129 0 10.5549 0 8.52521C0 6.55316 0.676208 4.73383 1.90393 3.4021C3.1463 2.05463 4.85101 1.3125 6.70459 1.3125C8.08997 1.3125 9.3587 1.75049 10.4755 2.6142C11.0391 3.05017 11.5499 3.58374 12 4.20612C12.4503 3.58374 12.9609 3.05017 13.5247 2.6142C14.6415 1.75049 15.9102 1.3125 17.2956 1.3125C19.149 1.3125 20.8539 2.05463 22.0963 3.4021C23.324 4.73383 24 6.55316 24 8.52521C24 10.5549 23.2438 12.4129 21.6198 14.3723C20.1671 16.1254 18.0793 17.9046 15.6617 19.9649C14.8356 20.6688 13.8994 21.4667 12.9276 22.3165C12.6711 22.541 12.3415 22.6648 12 22.6648ZM6.70459 2.71838C5.24835 2.71838 3.91058 3.29956 2.93738 4.35498C1.94971 5.42633 1.4057 6.90729 1.4057 8.52521C1.4057 10.2323 2.04016 11.759 3.46271 13.4755C4.83765 15.1346 6.88275 16.8774 9.25067 18.8954L9.25507 18.899C10.0829 19.6046 11.0213 20.4044 11.998 21.2584C12.9805 20.4027 13.9204 19.6016 14.7499 18.895C17.1176 16.877 19.1625 15.1346 20.5375 13.4755C21.9598 11.759 22.5943 10.2323 22.5943 8.52521C22.5943 6.90729 22.0503 5.42633 21.0626 4.35498C20.0896 3.29956 18.7516 2.71838 17.2956 2.71838C16.2288 2.71838 15.2494 3.0575 14.3846 3.7262C13.6139 4.32239 13.077 5.07605 12.7623 5.60339C12.6004 5.87457 12.3155 6.03644 12 6.03644C11.6845 6.03644 11.3996 5.87457 11.2377 5.60339C10.9232 5.07605 10.3863 4.32239 9.61542 3.7262C8.75061 3.0575 7.77118 2.71838 6.70459 2.71838Z" fill="#24282B"/>
</svg>
