<svg width="60" height="60" viewBox="0 0 60 60" fill="none" xmlns="http://www.w3.org/2000/svg">
<path d="M30 56.662C29.1458 56.662 28.3223 56.3525 27.6805 55.7904C25.2567 53.671 22.9198 51.6792 20.858 49.9223L20.8475 49.9132C14.8027 44.762 9.58282 40.3134 5.95093 35.9312C1.89102 31.0323 0 26.3873 0 21.313C0 16.3829 1.69052 11.8346 4.75983 8.50525C7.86575 5.13657 12.1275 3.28125 16.7615 3.28125C20.2249 3.28125 23.3968 4.37622 26.1887 6.53549C27.5977 7.62543 28.8748 8.95935 30 10.5153C31.1256 8.95935 32.4023 7.62543 33.8118 6.53549C36.6037 4.37622 39.7755 3.28125 43.239 3.28125C47.8725 3.28125 52.1347 5.13657 55.2406 8.50525C58.3099 11.8346 60 16.3829 60 21.313C60 26.3873 58.1094 31.0323 54.0495 35.9308C50.4176 40.3134 45.1982 44.7615 39.1544 49.9123C37.0889 51.6719 34.7484 53.6668 32.319 55.7913C31.6777 56.3525 30.8537 56.662 30 56.662ZM16.7615 6.79596C13.1209 6.79596 9.77646 8.2489 7.34344 10.8875C4.87427 13.5658 3.51425 17.2682 3.51425 21.313C3.51425 25.5807 5.1004 29.3976 8.65677 33.6887C12.0941 37.8365 17.2069 42.1935 23.1267 47.2385L23.1377 47.2476C25.2072 49.0114 27.5533 51.0109 29.995 53.1459C32.4513 51.0068 34.801 49.0041 36.8747 47.2375C42.794 42.1925 47.9063 37.8365 51.3437 33.6887C54.8996 29.3976 56.4857 25.5807 56.4857 21.313C56.4857 17.2682 55.1257 13.5658 52.6566 10.8875C50.224 8.2489 46.8791 6.79596 43.239 6.79596C40.5721 6.79596 38.1235 7.64374 35.9615 9.31549C34.0347 10.806 32.6926 12.6901 31.9057 14.0085C31.501 14.6864 30.7887 15.0911 30 15.0911C29.2113 15.0911 28.499 14.6864 28.0943 14.0085C27.3079 12.6901 25.9657 10.806 24.0385 9.31549C21.8765 7.64374 19.4279 6.79596 16.7615 6.79596Z" fill="url(#paint0_linear_7_1488)"/>
<defs>
<linearGradient id="paint0_linear_7_1488" x1="14.6341" y1="-54.8656" x2="91.4978" y2="-33.3751" gradientUnits="userSpaceOnUse">
<stop stop-color="#6987F1"/>
<stop offset="0.520833" stop-color="#7F32C1"/>
<stop offset="1" stop-color="#E84ED8"/>
</linearGradient>
</defs>
</svg>
