<svg width="20" height="20" viewBox="0 0 20 20" fill="none" xmlns="http://www.w3.org/2000/svg">
<g clip-path="url(#clip0_7_1220)">
<path d="M17.6562 10.7812H13.125C11.8327 10.7812 10.7812 11.8327 10.7812 13.125V17.6562C10.7812 18.9486 11.8327 20 13.125 20H17.6562C18.9486 20 20 18.9486 20 17.6562V13.125C20 11.8327 18.9486 10.7812 17.6562 10.7812ZM18.4375 17.6562C18.4375 18.087 18.087 18.4375 17.6562 18.4375H13.125C12.6942 18.4375 12.3438 18.087 12.3438 17.6562V13.125C12.3438 12.6942 12.6942 12.3438 13.125 12.3438H17.6562C18.087 12.3438 18.4375 12.6942 18.4375 13.125V17.6562ZM6.875 10.7812H2.34375C1.05141 10.7812 0 11.8327 0 13.125V17.6562C0 18.9486 1.05141 20 2.34375 20H6.875C8.16734 20 9.21875 18.9486 9.21875 17.6562V13.125C9.21875 11.8327 8.16734 10.7812 6.875 10.7812ZM7.65625 17.6562C7.65625 18.087 7.30578 18.4375 6.875 18.4375H2.34375C1.91297 18.4375 1.5625 18.087 1.5625 17.6562V13.125C1.5625 12.6942 1.91297 12.3438 2.34375 12.3438H6.875C7.30578 12.3438 7.65625 12.6942 7.65625 13.125V17.6562ZM6.875 0H2.34375C1.05141 0 0 1.05141 0 2.34375V6.875C0 8.16734 1.05141 9.21875 2.34375 9.21875H6.875C8.16734 9.21875 9.21875 8.16734 9.21875 6.875V2.34375C9.21875 1.05141 8.16734 0 6.875 0ZM7.65625 6.875C7.65625 7.30578 7.30578 7.65625 6.875 7.65625H2.34375C1.91297 7.65625 1.5625 7.30578 1.5625 6.875V2.34375C1.5625 1.91297 1.91297 1.5625 2.34375 1.5625H6.875C7.30578 1.5625 7.65625 1.91297 7.65625 2.34375V6.875ZM17.6562 0H13.125C11.8327 0 10.7812 1.05141 10.7812 2.34375V6.875C10.7812 8.16734 11.8327 9.21875 13.125 9.21875H17.6562C18.9486 9.21875 20 8.16734 20 6.875V2.34375C20 1.05141 18.9486 0 17.6562 0ZM18.4375 6.875C18.4375 7.30578 18.087 7.65625 17.6562 7.65625H13.125C12.6942 7.65625 12.3438 7.30578 12.3438 6.875V2.34375C12.3438 1.91297 12.6942 1.5625 13.125 1.5625H17.6562C18.087 1.5625 18.4375 1.91297 18.4375 2.34375V6.875Z" fill="#24282B"/>
</g>
<defs>
<clipPath id="clip0_7_1220">
<rect width="20" height="20" fill="white"/>
</clipPath>
</defs>
</svg>
