<svg width="56" height="56" viewBox="0 0 56 56" fill="none" xmlns="http://www.w3.org/2000/svg">
<g clip-path="url(#clip0_7_1476)">
<path d="M49.4375 30.1875H36.75C33.1314 30.1875 30.1875 33.1314 30.1875 36.75V49.4375C30.1875 53.0561 33.1314 56 36.75 56H49.4375C53.0561 56 56 53.0561 56 49.4375V36.75C56 33.1314 53.0561 30.1875 49.4375 30.1875ZM51.625 49.4375C51.625 50.6437 50.6437 51.625 49.4375 51.625H36.75C35.5438 51.625 34.5625 50.6437 34.5625 49.4375V36.75C34.5625 35.5438 33.3563 51.625 34.5625 51.625L43.5 53L51.625 51.625C52.8312 51.625 51.625 35.5438 51.625 36.75V49.4375ZM19.25 30.1875H6.5625C2.94394 30.1875 0 33.1314 0 36.75V49.4375C0 53.0561 2.94394 56 6.5625 56H19.25C22.8686 56 25.8125 53.0561 25.8125 49.4375V36.75C25.8125 33.1314 22.8686 30.1875 19.25 30.1875ZM21.4375 49.4375C21.4375 50.6437 20.4562 51.625 19.25 51.625H6.5625C5.35631 51.625 4.375 50.6437 4.375 49.4375V36.75C4.375 35.5438 5.35631 34.5625 6.5625 34.5625H19.25C20.4562 34.5625 21.4375 35.5438 21.4375 36.75V49.4375ZM19.25 0H6.5625C2.94394 0 0 2.94394 0 6.5625V19.25C0 22.8686 2.94394 25.8125 6.5625 25.8125H19.25C22.8686 25.8125 25.8125 22.8686 25.8125 19.25V6.5625C25.8125 2.94394 22.8686 0 19.25 0ZM21.4375 19.25C21.4375 20.4562 20.4562 21.4375 19.25 21.4375H6.5625C5.35631 21.4375 4.375 20.4562 4.375 19.25V6.5625C4.375 5.35631 5.35631 4.375 6.5625 4.375H19.25C20.4562 4.375 21.4375 5.35631 21.4375 6.5625V19.25ZM49.4375 0H36.75C33.1314 0 30.1875 2.94394 30.1875 6.5625V19.25C30.1875 22.8686 33.1314 25.8125 36.75 25.8125H49.4375C53.0561 25.8125 56 22.8686 56 19.25V6.5625C56 2.94394 53.0561 0 49.4375 0ZM51.625 19.25C51.625 20.4562 50.6437 21.4375 49.4375 21.4375H36.75C35.5438 21.4375 34.5625 20.4562 34.5625 19.25V6.5625C34.5625 5.35631 35.5438 4.375 36.75 4.375H49.4375C50.6437 4.375 51.625 5.35631 51.625 6.5625V19.25Z" fill="url(#paint0_linear_7_1476)"/>
</g>
<defs>
<linearGradient id="paint0_linear_7_1476" x1="13.6585" y1="-61" x2="86.4989" y2="-42.8811" gradientUnits="userSpaceOnUse">
<stop stop-color="#6987F1"/>
<stop offset="0.520833" stop-color="#7F32C1"/>
<stop offset="1" stop-color="#E84ED8"/>
</linearGradient>
<clipPath id="clip0_7_1476">
<rect width="56" height="56" fill="white"/>
</clipPath>
</defs>
</svg>
