<svg width="60" height="60" viewBox="0 0 60 60" fill="none" xmlns="http://www.w3.org/2000/svg">
<path d="M30 1.875C14.4892 1.875 1.875 14.4892 1.875 30C1.875 45.5108 14.4892 58.125 30 58.125C45.5108 58.125 58.125 45.5108 58.125 30C58.125 14.4892 45.5108 1.875 30 1.875ZM30 5.625C43.4841 5.625 54.3896 16.5159 54.3896 30C54.3896 43.4841 43.4841 54.3896 30 54.3896C16.5159 54.3896 5.625 43.4841 5.625 30C5.625 16.5159 16.5159 5.625 30 5.625ZM29.9744 15.011C29.479 15.0197 29.0072 15.2241 28.6621 15.5795C28.3169 15.935 28.1265 16.4126 28.1323 16.908V18.4863C25.1048 19.0543 22.5146 21.0038 22.5146 24.3823C22.5146 26.7261 23.5712 28.6217 24.9902 29.7253C26.4092 30.829 28.0115 31.3184 29.4177 31.7871C30.824 32.2559 32.0379 32.704 32.7283 33.241C33.4186 33.7779 33.75 34.2297 33.75 35.636C33.75 38.761 26.2646 38.761 26.2646 35.636C26.2702 35.3863 26.2258 35.1379 26.134 34.9056C26.0423 34.6733 25.9051 34.4616 25.7304 34.283C25.5558 34.1045 25.3472 33.9626 25.1169 33.8657C24.8867 33.7688 24.6394 33.7189 24.3896 33.7189C24.1399 33.7189 23.8926 33.7688 23.6623 33.8657C23.4321 33.9626 23.2235 34.1045 23.0489 34.283C22.8742 34.4616 22.737 34.6733 22.6452 34.9056C22.5535 35.1379 22.5091 35.3863 22.5146 35.636C22.5146 39.0119 25.1071 40.9651 28.1323 41.5356V43.1067C28.1268 43.3564 28.1712 43.6047 28.2629 43.8371C28.3547 44.0694 28.4919 44.2811 28.6665 44.4596C28.8412 44.6382 29.0498 44.7801 29.28 44.877C29.5103 44.9738 29.7575 45.0237 30.0073 45.0237C30.2571 45.0237 30.5044 44.9738 30.7346 44.877C30.9649 44.7801 31.1734 44.6382 31.3481 44.4596C31.5228 44.2811 31.66 44.0694 31.7517 43.8371C31.8435 43.6047 31.8879 43.3564 31.8823 43.1067V41.5356C34.908 40.9654 37.5037 39.0124 37.5037 35.636C37.5037 33.2922 36.4434 31.3966 35.0244 30.293C33.6054 29.1893 32.0032 28.6963 30.5969 28.2275C29.1907 27.7588 27.9767 27.3143 27.2864 26.7773C26.596 26.2404 26.2646 25.7886 26.2646 24.3823C26.2646 21.2573 33.75 21.2573 33.75 24.3823C33.75 24.8801 33.9477 25.3575 34.2997 25.7094C34.6517 26.0614 35.1291 26.2592 35.6268 26.2592C36.1246 26.2592 36.602 26.0614 36.9539 25.7094C37.3059 25.3575 37.5037 24.8801 37.5037 24.3823C37.5037 21.0088 34.9071 19.0613 31.8823 18.49V16.908C31.8853 16.6571 31.8379 16.4082 31.7429 16.176C31.6479 15.9438 31.5073 15.733 31.3294 15.5561C31.1515 15.3792 30.9399 15.2398 30.7071 15.1462C30.4744 15.0526 30.2252 15.0066 29.9744 15.011Z" fill="url(#paint0_linear_7_1504)"/>
<defs>
<linearGradient id="paint0_linear_7_1504" x1="15.5945" y1="-59.3973" x2="88.7601" y2="-41.1975" gradientUnits="userSpaceOnUse">
<stop stop-color="#6987F1"/>
<stop offset="0.520833" stop-color="#7F32C1"/>
<stop offset="1" stop-color="#E84ED8"/>
</linearGradient>
</defs>
</svg>
