<svg width="20" height="20" viewBox="0 0 20 20" fill="none" xmlns="http://www.w3.org/2000/svg">
<g clip-path="url(#clip0_7_1230)">
<path d="M10 0.625C4.82973 0.625 0.625 4.82973 0.625 10C0.625 15.1703 4.82973 19.375 10 19.375C15.1703 19.375 19.375 15.1703 19.375 10C19.375 4.82973 15.1703 0.625 10 0.625ZM10 1.875C14.4947 1.875 18.1299 5.50528 18.1299 10C18.1299 14.4947 14.4947 18.1299 10 18.1299C5.50528 18.1299 1.875 14.4947 1.875 10C1.875 5.50528 5.50528 1.875 10 1.875ZM9.99146 5.00366C9.82634 5.00657 9.66908 5.0747 9.55403 5.19318C9.43898 5.31166 9.3755 5.47085 9.37744 5.63599V6.16211C8.36828 6.35142 7.50488 7.00126 7.50488 8.12744C7.50488 8.90869 7.85708 9.54056 8.33008 9.90845C8.80308 10.2763 9.33716 10.4395 9.80591 10.5957C10.2747 10.752 10.6793 10.9013 10.9094 11.0803C11.1395 11.2593 11.25 11.4099 11.25 11.8787C11.25 12.9203 8.75488 12.9203 8.75488 11.8787C8.75673 11.7954 8.74193 11.7126 8.71135 11.6352C8.68077 11.5578 8.63503 11.4872 8.57681 11.4277C8.51859 11.3682 8.44906 11.3209 8.37232 11.2886C8.29557 11.2563 8.21315 11.2396 8.12988 11.2396C8.04662 11.2396 7.96419 11.2563 7.88745 11.2886C7.8107 11.3209 7.74118 11.3682 7.68296 11.4277C7.62474 11.4872 7.579 11.5578 7.54842 11.6352C7.51784 11.7126 7.50304 11.7954 7.50488 11.8787C7.50488 13.004 8.36905 13.655 9.37744 13.8452V14.3689C9.37559 14.4521 9.3904 14.5349 9.42097 14.6124C9.45155 14.6898 9.4973 14.7604 9.55552 14.8199C9.61373 14.8794 9.68326 14.9267 9.76001 14.959C9.83675 14.9913 9.91918 15.0079 10.0024 15.0079C10.0857 15.0079 10.1681 14.9913 10.2449 14.959C10.3216 14.9267 10.3911 14.8794 10.4494 14.8199C10.5076 14.7604 10.5533 14.6898 10.5839 14.6124C10.6145 14.5349 10.6293 14.4521 10.6274 14.3689V13.8452C11.636 13.6551 12.5012 13.0041 12.5012 11.8787C12.5012 11.0974 12.1478 10.4655 11.6748 10.0977C11.2018 9.72976 10.6677 9.56543 10.199 9.40918C9.73022 9.25293 9.32558 9.10477 9.09546 8.92578C8.86533 8.7468 8.75488 8.59619 8.75488 8.12744C8.75488 7.08578 11.25 7.08578 11.25 8.12744C11.25 8.29336 11.3159 8.45249 11.4332 8.56981C11.5506 8.68714 11.7097 8.75305 11.8756 8.75305C12.0415 8.75305 12.2007 8.68714 12.318 8.56981C12.4353 8.45249 12.5012 8.29336 12.5012 8.12744C12.5012 7.00295 11.6357 6.35376 10.6274 6.16333V5.63599C10.6284 5.55237 10.6126 5.4694 10.581 5.39199C10.5493 5.31459 10.5024 5.24433 10.4431 5.18537C10.3838 5.12641 10.3133 5.07994 10.2357 5.04873C10.1581 5.01752 10.0751 5.00219 9.99146 5.00366Z" fill="#24282B"/>
</g>
<defs>
<clipPath id="clip0_7_1230">
<rect width="20" height="20" fill="white"/>
</clipPath>
</defs>
</svg>
