<svg width="60" height="60" viewBox="0 0 60 60" fill="none" xmlns="http://www.w3.org/2000/svg">
<path d="M51.6505 4.12005C48.6264 1.10126 43.7292 1.10126 40.7051 4.12005L37.9652 6.87492L8.79961 36.0251L8.73763 36.0875C8.72262 36.1025 8.72262 36.1185 8.70664 36.1185C8.67564 36.165 8.62916 36.211 8.59865 36.2575C8.59865 36.273 8.58267 36.273 8.58267 36.2885C8.55168 36.335 8.53667 36.366 8.50519 36.4125C8.49018 36.428 8.49018 36.443 8.47468 36.4589C8.45919 36.5054 8.44369 36.5364 8.42771 36.5829C8.42771 36.5979 8.4127 36.5979 8.4127 36.6139L1.94172 56.0728C1.7519 56.6268 1.89621 57.2403 2.31314 57.6515C2.60611 57.9406 3.00125 58.1023 3.41238 58.1009C3.58041 58.0979 3.74699 58.0718 3.90776 58.0234L23.3517 51.5369C23.3667 51.5369 23.3667 51.5369 23.3827 51.5219C23.4316 51.5074 23.4785 51.4865 23.5216 51.4594C23.5338 51.458 23.5444 51.4526 23.5531 51.4444C23.5991 51.4134 23.6611 51.3819 23.7076 51.351C23.7536 51.3204 23.8006 51.274 23.8471 51.243C23.8626 51.227 23.8776 51.227 23.8776 51.212C23.8935 51.1965 23.9245 51.1815 23.94 51.15L55.8455 19.2445C58.8643 16.2204 58.8643 11.3232 55.8455 8.29957L51.6505 4.12005ZM22.8563 47.8988L12.0818 37.1248L39.049 10.1576L49.8234 20.9316L22.8563 47.8988ZM10.5642 39.9886L19.977 49.4009L5.84281 54.1068L10.5642 39.9886ZM53.663 17.077L52.0219 18.7336L41.247 7.95866L42.9041 6.30254C44.7166 4.49146 47.6545 4.49146 49.4675 6.30254L53.678 10.5131C55.477 12.3338 55.4702 15.265 53.663 17.077Z" fill="url(#paint0_linear_7_1483)"/>
<defs>
<linearGradient id="paint0_linear_7_1483" x1="15.5789" y1="-59.4108" x2="88.744" y2="-41.2094" gradientUnits="userSpaceOnUse">
<stop stop-color="#6987F1"/>
<stop offset="0.520833" stop-color="#7F32C1"/>
<stop offset="1" stop-color="#E84ED8"/>
</linearGradient>
</defs>
</svg>
