<svg width="60" height="60" viewBox="0 0 60 60" fill="none" xmlns="http://www.w3.org/2000/svg">
<path d="M30 1.75488L7.5 9.93738V29.7299C7.50539 33.5929 8.42184 37.4001 10.1749 40.8424C11.928 44.2847 14.4682 47.2649 17.5894 49.5411L30 58.5674L42.4106 49.5411C45.5318 47.2649 48.072 44.2847 49.8251 40.8424C51.5782 37.4001 52.4946 33.5929 52.5 29.7299V9.93738L30 1.75488ZM48.75 29.7299C48.7448 33.0015 47.9685 36.2257 46.4839 39.1411C44.9993 42.0565 42.8484 44.5808 40.2056 46.5093L30 53.9324L19.7944 46.5093C17.1516 44.5808 15.0007 42.0565 13.5161 39.1411C12.0315 36.2257 11.2552 33.0015 11.25 29.7299V12.5624L30 5.74488L48.75 12.5624V29.7299Z" fill="url(#paint0_linear_7_1498)"/>
<path d="M21.9506 25.3931L19.2993 28.0443L27.6562 36.4012L40.7006 23.3568L38.0493 20.7056L27.6562 31.0987L21.9506 25.3931Z" fill="url(#paint1_linear_7_1498)"/>
<defs>
<linearGradient id="paint0_linear_7_1498" x1="18.4756" y1="-60.1302" x2="78.3071" y2="-48.3417" gradientUnits="userSpaceOnUse">
<stop stop-color="#6987F1"/>
<stop offset="0.520833" stop-color="#7F32C1"/>
<stop offset="1" stop-color="#E84ED8"/>
</linearGradient>
<linearGradient id="paint1_linear_7_1498" x1="24.5191" y1="3.60855" x2="51.029" y2="12.6" gradientUnits="userSpaceOnUse">
<stop stop-color="#6987F1"/>
<stop offset="0.520833" stop-color="#7F32C1"/>
<stop offset="1" stop-color="#E84ED8"/>
</linearGradient>
</defs>
</svg>
