<svg width="24" height="24" viewBox="0 0 24 24" fill="none" xmlns="http://www.w3.org/2000/svg">
<g clip-path="url(#clip0_7_1151)">
<path d="M16.2758 14.1193L12.9295 11.6096V6.49731C12.9295 5.98328 12.514 5.56778 12 5.56778C11.4859 5.56778 11.0704 5.98328 11.0704 6.49731V12.0744C11.0704 12.3672 11.208 12.6433 11.4422 12.818L15.1603 15.6066C15.3276 15.7321 15.5228 15.7925 15.7171 15.7925C16.0006 15.7925 16.2794 15.6651 16.4616 15.4197C16.7703 15.0098 16.6866 14.427 16.2758 14.1193Z" fill="#24282B"/>
<path d="M12 0C5.3828 0 0 5.3828 0 12C0 18.6172 5.3828 24 12 24C18.6172 24 24 18.6172 24 12C24 5.3828 18.6172 0 12 0ZM12 22.141C6.40898 22.141 1.85902 17.591 1.85902 12C1.85902 6.40898 6.40898 1.85902 12 1.85902C17.592 1.85902 22.141 6.40898 22.141 12C22.141 17.591 17.591 22.141 12 22.141Z" fill="#24282B"/>
</g>
<defs>
<clipPath id="clip0_7_1151">
<rect width="24" height="24" fill="white"/>
</clipPath>
</defs>
</svg>
